<svg id="icon-arrow-down-tabl" width="11" height="15" viewBox="0 0 11 15" fill="none" xmlns="http://www.w3.org/2000/svg">
<path fill-rule="evenodd" clip-rule="evenodd" d="M5.58165 0.278242C5.44599 0.278242 5.3159 0.33213 5.21998 0.428051C5.12405 0.523972 5.07017 0.654068 5.07017 0.789722L5.07017 12.8535L1.85194 9.63423C1.75589 9.53818 1.62563 9.48423 1.48981 9.48423C1.35399 9.48423 1.22372 9.53818 1.12768 9.63423C1.03164 9.73027 0.977683 9.86053 0.977683 9.99635C0.977683 10.1322 1.03164 10.2624 1.12768 10.3585L5.21952 14.4503C5.26703 14.498 5.32347 14.5357 5.38561 14.5615C5.44775 14.5873 5.51437 14.6006 5.58165 14.6006C5.64892 14.6006 5.71554 14.5873 5.77768 14.5615C5.83982 14.5357 5.89626 14.498 5.94377 14.4503L10.0356 10.3585C10.0832 10.3109 10.1209 10.2545 10.1466 10.1923C10.1724 10.1302 10.1856 10.0636 10.1856 9.99636C10.1856 9.86053 10.1317 9.73027 10.0356 9.63423C9.93957 9.53819 9.80931 9.48423 9.67348 9.48423C9.53766 9.48423 9.4074 9.53819 9.31136 9.63423L6.09313 12.8535L6.09313 0.789722C6.09313 0.654069 6.03924 0.523972 5.94332 0.428051C5.8474 0.33213 5.7173 0.278242 5.58165 0.278242Z" fill="#008CEF"/>
</svg>
